<?xml version="1.0" encoding="utf-8"?>
<!-- Generator: Adobe Illustrator 17.0.0, SVG Export Plug-In . SVG Version: 6.00 Build 0)  -->
<!DOCTYPE svg PUBLIC "-//W3C//DTD SVG 1.1//EN" "http://www.w3.org/Graphics/SVG/1.1/DTD/svg11.dtd">
<svg version="1.1" xmlns="http://www.w3.org/2000/svg" xmlns:xlink="http://www.w3.org/1999/xlink" x="0px" y="0px"
	 width="275.23px" height="237.869px" viewBox="0 0 275.23 237.869" enable-background="new 0 0 275.23 237.869"
	 xml:space="preserve">
<g id="svg1234" sodipodi:docname="/home/yemu/clipart/newnewnew/rwanda.svg" xmlns:sodipodi="http://sodipodi.sourceforge.net/DTD/sodipodi-0.dtd" sodipodi:version="0.33pre" sodipodi:docbase="/home/yemu/clipart/newnewnew">
	<sodipodi:namedview  id="base" showgrid="true" snaptogrid="false"></sodipodi:namedview>
	<g>
		<g>
			<defs>
				<path id="SVGID_1_" d="M151.297,182.582c0,0-6.538-10.271-0.311-10.583s11.83,5.293,13.697,8.404
					c1.868,3.113,13.697,8.717,19.923-0.621c0,0-1.557-4.36,2.803-6.228c4.357-1.867,4.357-1.867,4.357-1.867
					s3.425,4.993,9.962,3.423c6.537-1.567,5.603-4.046,7.159-5.913s4.358-1.232,6.849,1.556c2.491,2.79,4.048,7.783,6.538,7.471
					c2.49-0.311,5.914,0.935,7.471,2.802c1.557,1.869,2.802,2.491,8.095-0.311c5.292-2.802,7.471,0.935,9.961,0
					c2.49-0.933,3.424-6.226,6.538-4.669c3.112,1.556,10.896,6.536,18.056-8.095s-2.491-14.94,1.244-22.103
					c3.736-7.16,0.623-16.5-6.536-24.905c0,0-3.113-4.2,0.622-11.049c0,0,1.4-1.869-0.312-8.095c0,0-1.09-3.269,0.467-7.628
					c1.558-4.357,1.868-13.852,0.623-16.342s-2.957-5.604-4.671-8.25c-1.712-2.646-5.759-5.915-7.314-11.83
					c-1.557-5.914-3.269-12.296-14.009-13.386c0,0-2.023-3.891-6.537-6.849c-4.513-2.958-5.448-7.627-5.448-9.806
					s-1.556-9.494-4.046-10.74c-2.491-1.245-5.293-2.802-5.138-5.448c0.156-2.646-1.4-3.269-2.646-4.203s1.09-1.245,1.868-2.491
					c0.777-1.245,2.179-4.046-3.27-4.669c-5.446-0.623-13.229,0.623-14.631,3.425c-1.4,2.801,0.156,3.113-0.778,5.292
					c-0.933,2.179-3.891,4.981-4.98,6.071c-1.09,1.089-1.09,4.514-2.957,6.07c-1.868,1.557-5.137,5.137-7.938,7.626
					c-2.802,2.491-6.538,2.646-7.16,3.581c-0.623,0.934-0.934,1.401-0.778,2.802s-2.334,1.868-1.557,3.424
					c0.778,1.556,1.401,2.957,1.401,2.957s-2.023-0.934-3.893,0.934c-1.867,1.868-1.556,3.735-2.802,3.892
					c-1.245,0.155-4.824-0.779-6.226,1.089c-1.401,1.868-1.401,1.868-1.401,1.868s0.312,0.156,0.623,1.089
					c0.312,0.934,1.089,2.023-0.778,1.712c-1.867-0.312-4.357-1.245-5.914-0.778c-1.558,0.467-6.382,4.669-9.65,5.448
					c-3.27,0.778-8.094-1.868-8.25-5.448c-0.155-3.58,1.09-7.004-1.4-10.584c-2.49-3.581-3.736-3.424-4.981-4.047
					c-1.245-0.623-2.489,2.023-4.514,3.58c-2.023,1.557-4.358,1.245-6.693-0.467c-2.334-1.712-6.069-0.934-6.849,0.467
					c-0.778,1.401-2.646,5.448-6.227,5.448c-3.578,0-13.541-0.156-14.163,0s-0.779,1.401-0.779,2.179s-2.178,1.401-4.047,1.089
					c-1.867-0.311-1.089,1.246-1.399,1.712c-0.312,0.467-6.693,5.137-7.161,6.382c-0.467,1.245-2.179,2.49-2.802,2.957
					c-0.622,0.467-3.58-2.179-7.005-1.245c-3.424,0.934-4.513,4.203-5.447,6.693c-0.934,2.49-2.023,4.203-4.98,5.292
					c-2.957,1.09-6.849,10.584-7.783,11.984c-0.933,1.401-6.382,11.83-8.872,14.319c-2.49,2.491-4.669,8.407-5.292,11.986
					c-0.622,3.58-0.777,17.589-0.622,21.169c0.155,3.579,3.891,9.494,4.203,12.141c0.311,2.646-1.869,10.117-4.358,13.54
					c-2.491,3.426-3.735,7.628-8.561,9.495c-4.826,1.869-8.095,1.713-9.963,3.893c-1.867,2.18-3.891,5.76-6.07,7.16
					s-8.561,2.023-9.961,5.137c-1.401,3.111,0.312,1.556,0.312,2.646c0,1.089,0.311,2.491,0.934,3.579
					c0.622,1.091,1.556,4.826-1.869,7.473c-3.424,2.645-3.891,3.269-2.645,5.448c1.245,2.178,4.358,3.89,5.291,6.07
					c0.935,2.178-1.089,6.693,1.245,9.339c2.335,2.646,6.227,1.399,8.095,2.334c1.867,0.934,4.357,1.712,5.447,2.958
					c1.09,1.244,4.825,6.537,5.915,5.915c1.09-0.624,3.112-6.071,2.802-10.74c-0.312-4.671-3.579-6.85-0.778-8.562
					c2.802-1.711,13.541-2.646,14.631-1.244c1.09,1.4,3.892,2.801,6.538,2.801c2.646,0,15.254-0.623,16.188,2.646
					c0.934,3.27-2.802,4.048-1.868,5.604c0.935,1.556,3.736,2.957,4.669,4.98c0.935,2.023-1.867,2.957-1.711,4.825
					c0.155,1.867,2.49,2.802,2.49,4.825c0,2.022-0.779,4.98,1.712,5.447c2.49,0.466,3.425-4.047,5.915-4.513
					c2.49-0.467,9.961,1.4,12.763,2.335c2.802,0.933,12.297-2.802,14.632-2.646c2.334,0.155,10.74,2.955,13.074,2.955
					c2.335,0,4.047-3.423,4.981-4.979c0.934-1.558,3.424-3.113,7.626-0.778c4.203,2.334,12.142-3.27,15.41-11.362
					c3.27-8.095-0.155-12.92,0-16.81c0.155-3.893,3.892-7.939,5.292-11.364C152.386,187.252,152.543,185.228,151.297,182.582z"/>
			</defs>
			<clipPath id="SVGID_2_">
				<use xlink:href="#SVGID_1_"  overflow="visible"/>
			</clipPath>
			<g clip-path="url(#SVGID_2_)">
				<rect id="rect1242" x="-81.938" y="-2.876" fill="#009AF4" width="361.961" height="120.653"/>
				<rect id="rect1243" x="-81.938" y="178.104" fill="#1C8F31" width="361.961" height="60.327"/>
				<rect id="rect1244" x="-81.938" y="117.777" fill="#EFEF00" width="361.961" height="60.327"/>
				
					<polygon id="polygon1249" sodipodi:r1="80.8845978" sodipodi:cy="123.189224" sodipodi:cx="608.229980" sodipodi:type="star" sodipodi:sides="24" sodipodi:r2="40.4422989" sodipodi:arg1="0.63274837" sodipodi:arg2="0.76364803" fill="#FFDA00" points="
					246.72,81.109 229.201,71.447 239.617,88.528 225.195,74.662 230.836,93.857 220.494,76.729 220.974,96.73 215.42,77.51 
					210.705,96.954 210.314,76.951 200.728,94.511 205.527,75.089 191.722,89.57 201.386,72.052 184.304,82.467 198.172,68.046 
					178.976,73.686 196.103,63.346 176.101,63.824 195.322,58.27 175.879,53.556 195.883,53.164 178.322,43.579 197.744,48.378 
					183.261,34.574 200.781,44.237 190.365,27.155 204.787,41.022 199.146,21.827 209.488,38.954 209.008,18.954 214.562,38.173 
					219.277,18.73 219.668,38.733 229.254,21.172 224.455,40.595 238.258,26.113 228.595,43.632 245.677,33.216 231.81,47.637 
					251.006,41.998 233.879,52.338 253.879,51.859 234.66,57.414 254.101,62.128 234.099,62.519 251.66,72.105 232.238,67.305 				
					">
				</polygon>
				
					<path id="path1251" sodipodi:rx="30.982269" sodipodi:ry="30.982243" sodipodi:cy="123.189224" sodipodi:cx="608.773560" sodipodi:type="arc" fill="#0098F6" d="
					M230.25,57.842c0-8.427-6.832-15.258-15.258-15.258c-8.428,0-15.26,6.831-15.26,15.258s6.832,15.258,15.26,15.258
					C223.418,73.1,230.25,66.268,230.25,57.842L230.25,57.842h-15.258H230.25z"/>
				
					<path id="path1250" sodipodi:rx="30.982269" sodipodi:ry="30.982243" sodipodi:cy="123.189224" sodipodi:cx="608.773560" sodipodi:type="arc" fill="#FFD900" d="
					M227.258,57.842c0-6.873-5.492-12.445-12.268-12.445s-12.268,5.572-12.268,12.445s5.492,12.445,12.268,12.445
					S227.258,64.715,227.258,57.842L227.258,57.842h-12.266H227.258z"/>
			</g>
		</g>
	</g>
</g>
<g id="outline">
	<path opacity="0.2" fill="none" stroke="#000000" stroke-miterlimit="10" d="M151.297,182.582c0,0-6.538-10.271-0.311-10.583
		s11.83,5.293,13.697,8.404c1.868,3.113,13.697,8.717,19.923-0.621c0,0-1.557-4.36,2.803-6.228c4.357-1.867,4.357-1.867,4.357-1.867
		s3.425,4.993,9.962,3.423c6.537-1.567,5.603-4.046,7.159-5.913s4.358-1.232,6.849,1.556c2.491,2.79,4.048,7.783,6.538,7.471
		c2.49-0.311,5.914,0.935,7.471,2.802c1.557,1.869,2.802,2.491,8.095-0.311c5.292-2.802,7.471,0.935,9.961,0
		c2.49-0.933,3.424-6.226,6.538-4.669c3.112,1.556,10.896,6.536,18.056-8.095s-2.491-14.94,1.244-22.103
		c3.736-7.16,0.623-16.5-6.536-24.905c0,0-3.113-4.2,0.622-11.049c0,0,1.4-1.869-0.312-8.095c0,0-1.09-3.269,0.467-7.628
		c1.558-4.357,1.868-13.852,0.623-16.342s-2.957-5.604-4.671-8.25c-1.712-2.646-5.759-5.915-7.314-11.83
		c-1.557-5.914-3.269-12.296-14.009-13.386c0,0-2.023-3.891-6.537-6.849c-4.513-2.958-5.448-7.627-5.448-9.806
		s-1.556-9.494-4.046-10.74c-2.491-1.245-5.293-2.802-5.138-5.448c0.156-2.646-1.4-3.269-2.646-4.203s1.09-1.245,1.868-2.491
		c0.777-1.245,2.179-4.046-3.27-4.669c-5.446-0.623-13.229,0.623-14.631,3.425c-1.4,2.801,0.156,3.113-0.778,5.292
		c-0.933,2.179-3.891,4.981-4.98,6.071c-1.09,1.089-1.09,4.514-2.957,6.07c-1.868,1.557-5.137,5.137-7.938,7.626
		c-2.802,2.491-6.538,2.646-7.16,3.581c-0.623,0.934-0.934,1.401-0.778,2.802s-2.334,1.868-1.557,3.424
		c0.778,1.556,1.401,2.957,1.401,2.957s-2.023-0.934-3.893,0.934c-1.867,1.868-1.556,3.735-2.802,3.892
		c-1.245,0.155-4.824-0.779-6.226,1.089c-1.401,1.868-1.401,1.868-1.401,1.868s0.312,0.156,0.623,1.089
		c0.312,0.934,1.089,2.023-0.778,1.712c-1.867-0.312-4.357-1.245-5.914-0.778c-1.558,0.467-6.382,4.669-9.65,5.448
		c-3.27,0.778-8.094-1.868-8.25-5.448c-0.155-3.58,1.09-7.004-1.4-10.584c-2.49-3.581-3.736-3.424-4.981-4.047
		c-1.245-0.623-2.489,2.023-4.514,3.58c-2.023,1.557-4.358,1.245-6.693-0.467c-2.334-1.712-6.069-0.934-6.849,0.467
		c-0.778,1.401-2.646,5.448-6.227,5.448c-3.578,0-13.541-0.156-14.163,0s-0.779,1.401-0.779,2.179s-2.178,1.401-4.047,1.089
		c-1.867-0.311-1.089,1.246-1.399,1.712c-0.312,0.467-6.693,5.137-7.161,6.382c-0.467,1.245-2.179,2.49-2.802,2.957
		c-0.622,0.467-3.58-2.179-7.005-1.245c-3.424,0.934-4.513,4.203-5.447,6.693c-0.934,2.49-2.023,4.203-4.98,5.292
		c-2.957,1.09-6.849,10.584-7.783,11.984c-0.933,1.401-6.382,11.83-8.872,14.319c-2.49,2.491-4.669,8.407-5.292,11.986
		c-0.622,3.58-0.777,17.589-0.622,21.169c0.155,3.579,3.891,9.494,4.203,12.141c0.311,2.646-1.869,10.117-4.358,13.54
		c-2.491,3.426-3.735,7.628-8.561,9.495c-4.826,1.869-8.095,1.713-9.963,3.893c-1.867,2.18-3.891,5.76-6.07,7.16
		s-8.561,2.023-9.961,5.137c-1.401,3.111,0.312,1.556,0.312,2.646c0,1.089,0.311,2.491,0.934,3.579
		c0.622,1.091,1.556,4.826-1.869,7.473c-3.424,2.645-3.891,3.269-2.645,5.448c1.245,2.178,4.358,3.89,5.291,6.07
		c0.935,2.178-1.089,6.693,1.245,9.339c2.335,2.646,6.227,1.399,8.095,2.334c1.867,0.934,4.357,1.712,5.447,2.958
		c1.09,1.244,4.825,6.537,5.915,5.915c1.09-0.624,3.112-6.071,2.802-10.74c-0.312-4.671-3.579-6.85-0.778-8.562
		c2.802-1.711,13.541-2.646,14.631-1.244c1.09,1.4,3.892,2.801,6.538,2.801c2.646,0,15.254-0.623,16.188,2.646
		c0.934,3.27-2.802,4.048-1.868,5.604c0.935,1.556,3.736,2.957,4.669,4.98c0.935,2.023-1.867,2.957-1.711,4.825
		c0.155,1.867,2.49,2.802,2.49,4.825c0,2.022-0.779,4.98,1.712,5.447c2.49,0.466,3.425-4.047,5.915-4.513
		c2.49-0.467,9.961,1.4,12.763,2.335c2.802,0.933,12.297-2.802,14.632-2.646c2.334,0.155,10.74,2.955,13.074,2.955
		c2.335,0,4.047-3.423,4.981-4.979c0.934-1.558,3.424-3.113,7.626-0.778c4.203,2.334,12.142-3.27,15.41-11.362
		c3.27-8.095-0.155-12.92,0-16.81c0.155-3.893,3.892-7.939,5.292-11.364C152.386,187.252,152.543,185.228,151.297,182.582z"/>
</g>
</svg>
